<svg width="37" height="36" viewBox="0 0 37 36" fill="none" xmlns="http://www.w3.org/2000/svg">
<rect x="0.5" width="36" height="36" rx="6" fill="#696CFF"/>
<path d="M18.5 8C17.5111 8 16.5444 8.29324 15.7221 8.84265C14.8999 9.39206 14.259 10.173 13.8806 11.0866C13.5022 12.0002 13.4031 13.0055 13.5961 13.9755C13.789 14.9454 14.2652 15.8363 14.9645 16.5355C15.6637 17.2348 16.5546 17.711 17.5245 17.9039C18.4945 18.0969 19.4998 17.9978 20.4134 17.6194C21.327 17.241 22.1079 16.6001 22.6573 15.7779C23.2068 14.9556 23.5 13.9889 23.5 13C23.5 11.6739 22.9732 10.4021 22.0355 9.46447C21.0979 8.52678 19.8261 8 18.5 8ZM18.5 16C17.9067 16 17.3266 15.8241 16.8333 15.4944C16.3399 15.1648 15.9554 14.6962 15.7284 14.1481C15.5013 13.5999 15.4419 12.9967 15.5576 12.4147C15.6734 11.8328 15.9591 11.2982 16.3787 10.8787C16.7982 10.4591 17.3328 10.1734 17.9147 10.0576C18.4967 9.94189 19.0999 10.0013 19.6481 10.2284C20.1962 10.4554 20.6648 10.8399 20.9944 11.3333C21.3241 11.8266 21.5 12.4067 21.5 13C21.5 13.7956 21.1839 14.5587 20.6213 15.1213C20.0587 15.6839 19.2956 16 18.5 16ZM27.5 27V26C27.5 24.1435 26.7625 22.363 25.4497 21.0503C24.137 19.7375 22.3565 19 20.5 19H16.5C14.6435 19 12.863 19.7375 11.5503 21.0503C10.2375 22.363 9.5 24.1435 9.5 26V27H11.5V26C11.5 24.6739 12.0268 23.4021 12.9645 22.4645C13.9021 21.5268 15.1739 21 16.5 21H20.5C21.8261 21 23.0979 21.5268 24.0355 22.4645C24.9732 23.4021 25.5 24.6739 25.5 26V27H27.5Z" fill="white"/>
</svg>
