<svg width="19" height="19" viewBox="0 0 19 19" fill="none" xmlns="http://www.w3.org/2000/svg">
<path d="M17.0001 11.998C16.9081 12.063 15.0001 14.081 15.0001 15.498C15.0001 16.992 15.9491 17.946 17.0001 17.998C17.9061 18.042 19.0001 17.107 19.0001 15.498C19.0001 13.998 17.0921 12.063 17.0001 11.998ZM0.414062 10.998C0.414062 11.532 0.622062 12.034 1.00006 12.412L6.58606 17.998C6.96406 18.376 7.46606 18.584 8.00006 18.584C8.53406 18.584 9.03606 18.376 9.41406 17.998L16.4141 10.998L15.7071 10.291L8.00006 2.58399L5.70706 0.290985L4.29306 1.70499L6.58606 3.99799L1.00006 9.58398C0.622062 9.96198 0.414062 10.464 0.414062 10.998ZM8.00006 5.41199L13.5861 10.998L8.00006 16.584H8.00106L8.00006 17.584V16.584L2.41406 10.998L8.00006 5.41199Z" fill="#32475C" fill-opacity="0.6"/>
</svg>
