<svg width="98" height="24" viewBox="0 0 98 24" fill="none" xmlns="http://www.w3.org/2000/svg">
<rect width="98" height="24" rx="12" fill="#FF4D49" fill-opacity="0.12"/>
<path d="M11.2415 7.601C11.2718 7.601 11.3628 7.60317 11.5145 7.6075C11.6705 7.6075 11.859 7.6075 12.08 7.6075C12.301 7.60317 12.5307 7.60317 12.769 7.6075C13.0073 7.6075 13.2262 7.60967 13.4255 7.614C14.5782 7.63133 15.512 7.81983 16.227 8.1795C16.9463 8.53483 17.4728 9.05267 17.8065 9.733C18.1445 10.4133 18.3135 11.2497 18.3135 12.242C18.3135 13.282 18.1315 14.1552 17.7675 14.8615C17.4078 15.5678 16.8575 16.1008 16.1165 16.4605C15.3798 16.8202 14.4417 17 13.302 17H11.2415V7.601ZM12.4765 8.6345V15.9665H13.302C14.0777 15.9665 14.745 15.8473 15.304 15.609C15.863 15.3663 16.292 14.9742 16.591 14.4325C16.8943 13.8908 17.046 13.1672 17.046 12.2615C17.046 11.3558 16.8987 10.6387 16.604 10.11C16.3137 9.58133 15.8933 9.20433 15.343 8.979C14.7927 8.74933 14.1297 8.6345 13.354 8.6345H12.4765ZM20.4152 17V7.601H26.3432L26.3367 8.6605H21.6242V11.7285H25.8687V12.7815H21.6177V15.9145L26.4667 15.9275V17H20.4152ZM35.805 7.601L32.4705 17H31.021L27.745 7.601H28.9345L31.749 15.6285L34.622 7.601H35.805ZM37.5057 17V7.601H43.4337L43.4272 8.6605H38.7147V11.7285H42.9592V12.7815H38.7082V15.9145L43.5572 15.9275V17H37.5057ZM45.8987 7.601H47.1272V15.921H51.5667V17H45.8922L45.8987 7.601ZM56.8438 17.13C56.0074 17.13 55.2838 16.9415 54.6728 16.5645C54.0618 16.1875 53.5894 15.6415 53.2558 14.9265C52.9264 14.2072 52.7618 13.3383 52.7618 12.32C52.7618 11.293 52.9286 10.4198 53.2623 9.7005C53.5959 8.97683 54.0683 8.42433 54.6793 8.043C55.2946 7.66167 56.0161 7.471 56.8438 7.471C57.6758 7.471 58.3951 7.66167 59.0018 8.043C59.6084 8.42 60.0764 8.97033 60.4058 9.694C60.7351 10.4133 60.8998 11.2887 60.8998 12.32C60.8998 13.3383 60.7351 14.2072 60.4058 14.9265C60.0808 15.6415 59.6149 16.1875 59.0083 16.5645C58.4016 16.9415 57.6801 17.13 56.8438 17.13ZM56.8438 16.0835C57.4244 16.0835 57.9184 15.9513 58.3258 15.687C58.7331 15.4227 59.0429 15.0132 59.2553 14.4585C59.4719 13.9038 59.5803 13.1953 59.5803 12.333C59.5803 11.4577 59.4719 10.7383 59.2553 10.175C59.0386 9.61167 58.7266 9.19567 58.3193 8.927C57.9119 8.654 57.4201 8.5175 56.8438 8.5175C56.2718 8.5175 55.7799 8.654 55.3683 8.927C54.9566 9.2 54.6403 9.61817 54.4193 10.1815C54.1983 10.7448 54.0878 11.462 54.0878 12.333C54.0878 13.1953 54.1983 13.9038 54.4193 14.4585C54.6403 15.0132 54.9566 15.4227 55.3683 15.687C55.7799 15.9513 56.2718 16.0835 56.8438 16.0835ZM63.0081 17V7.601H66.1866C66.8583 7.601 67.4563 7.71367 67.9806 7.939C68.505 8.16433 68.9166 8.498 69.2156 8.94C69.519 9.382 69.6706 9.92583 69.6706 10.5715C69.6706 11.1955 69.5298 11.7285 69.2481 12.1705C68.9708 12.6125 68.583 12.9483 68.0846 13.178C67.5863 13.4077 67.0078 13.5225 66.3491 13.5225H64.2431V17H63.0081ZM64.2366 12.5085H66.3231C66.9688 12.5085 67.4931 12.3287 67.8961 11.969C68.2991 11.6093 68.5006 11.1197 68.5006 10.5C68.5006 9.876 68.2926 9.40367 67.8766 9.083C67.4606 8.76233 66.9233 8.602 66.2646 8.602H64.2366V12.5085ZM71.4455 17V7.601H77.3735L77.367 8.6605H72.6545V11.7285H76.899V12.7815H72.648V15.9145L77.497 15.9275V17H71.4455ZM86.553 17H85.279L83.563 12.9505H81.0345V17H79.832V7.601H83.472C84.148 7.601 84.7135 7.705 85.1685 7.913C85.6235 8.11667 85.9637 8.41133 86.189 8.797C86.4144 9.17833 86.527 9.6355 86.527 10.1685C86.527 10.6798 86.436 11.1045 86.254 11.4425C86.0764 11.7805 85.8489 12.0535 85.5715 12.2615C85.2942 12.4652 85.006 12.6233 84.707 12.736L86.553 17ZM83.082 11.956C83.7884 11.956 84.3344 11.813 84.72 11.527C85.1057 11.2367 85.2985 10.8077 85.2985 10.24C85.2985 9.68533 85.1252 9.2715 84.7785 8.9985C84.4362 8.72117 83.966 8.5825 83.368 8.5825H81.0345V11.956H83.082Z" fill="#FF3E1D"/>
</svg>
