<svg width="18" height="13" viewBox="0 0 18 13" fill="none" xmlns="http://www.w3.org/2000/svg">
<path d="M15.9082 3.90834L12.3332 7.48334L11.2498 6.40834L10.0748 7.59168L12.3248 9.84167L17.0915 5.09168L15.9082 3.90834ZM2.33317 3.66668C2.32291 4.10722 2.40211 4.54527 2.566 4.95433C2.72988 5.36339 2.97503 5.73495 3.28663 6.04655C3.59823 6.35815 3.96979 6.6033 4.37885 6.76718C4.78791 6.93107 5.22596 7.01027 5.6665 7.00001C6.10705 7.01027 6.5451 6.93107 6.95416 6.76718C7.36321 6.6033 7.73478 6.35815 8.04638 6.04655C8.35797 5.73495 8.60313 5.36339 8.76701 4.95433C8.93089 4.54527 9.0101 4.10722 8.99984 3.66668C9.0101 3.22613 8.93089 2.78808 8.76701 2.37902C8.60313 1.96996 8.35797 1.5984 8.04638 1.2868C7.73478 0.975205 7.36321 0.730051 6.95416 0.566168C6.5451 0.402285 6.10705 0.32308 5.6665 0.333342C5.22596 0.32308 4.78791 0.402285 4.37885 0.566168C3.96979 0.730051 3.59823 0.975205 3.28663 1.2868C2.97503 1.5984 2.72988 1.96996 2.566 2.37902C2.40211 2.78808 2.32291 3.22613 2.33317 3.66668ZM7.33317 3.66668C7.34389 3.88838 7.30812 4.10988 7.22815 4.31695C7.14818 4.52401 7.02579 4.71206 6.86884 4.86901C6.71188 5.02597 6.52384 5.14836 6.31677 5.22832C6.10971 5.30829 5.88821 5.34406 5.6665 5.33334C5.4448 5.34406 5.2233 5.30829 5.01623 5.22832C4.80917 5.14836 4.62112 5.02597 4.46417 4.86901C4.30721 4.71206 4.18482 4.52401 4.10486 4.31695C4.02489 4.10988 3.98912 3.88838 3.99984 3.66668C3.98912 3.44497 4.02489 3.22347 4.10486 3.01641C4.18482 2.80934 4.30721 2.62129 4.46417 2.46434C4.62112 2.30739 4.80917 2.185 5.01623 2.10503C5.2233 2.02506 5.4448 1.98929 5.6665 2.00001C5.88821 1.98929 6.10971 2.02506 6.31677 2.10503C6.52384 2.185 6.71188 2.30739 6.86884 2.46434C7.02579 2.62129 7.14818 2.80934 7.22815 3.01641C7.30812 3.22347 7.34389 3.44497 7.33317 3.66668ZM2.33317 12C2.33317 11.337 2.59656 10.7011 3.0654 10.2322C3.53424 9.7634 4.17013 9.50001 4.83317 9.50001H6.49984C7.16288 9.50001 7.79876 9.7634 8.2676 10.2322C8.73645 10.7011 8.99984 11.337 8.99984 12V12.8333H10.6665V12C10.6665 11.4528 10.5587 10.911 10.3493 10.4055C10.1399 9.89997 9.83303 9.44064 9.44612 9.05373C9.0592 8.66682 8.59987 8.35991 8.09435 8.15051C7.58883 7.94112 7.04701 7.83334 6.49984 7.83334H4.83317C3.7281 7.83334 2.66829 8.27233 1.88689 9.05373C1.10549 9.83513 0.666504 10.8949 0.666504 12V12.8333H2.33317V12Z" fill="white"/>
</svg>
