<svg width="14" height="14" viewBox="0 0 14 14" fill="none" xmlns="http://www.w3.org/2000/svg">
<path d="M6.91675 7.00001C8.75508 7.00001 10.2501 5.50501 10.2501 3.66668C10.2501 1.82834 8.75508 0.333344 6.91675 0.333344C5.07841 0.333344 3.58341 1.82834 3.58341 3.66668C3.58341 5.50501 5.07841 7.00001 6.91675 7.00001ZM6.91675 2.00001C7.83591 2.00001 8.58341 2.74751 8.58341 3.66668C8.58341 4.58584 7.83591 5.33334 6.91675 5.33334C5.99758 5.33334 5.25008 4.58584 5.25008 3.66668C5.25008 2.74751 5.99758 2.00001 6.91675 2.00001ZM8.16675 7.83334H5.66675C2.90925 7.83334 0.666748 10.0758 0.666748 12.8333V13.6667H2.33341V12.8333C2.33341 10.995 3.82841 9.50001 5.66675 9.50001H8.16675C10.0051 9.50001 11.5001 10.995 11.5001 12.8333V13.6667H13.1667V12.8333C13.1667 10.0758 10.9242 7.83334 8.16675 7.83334Z" fill="#32475C" fill-opacity="0.54"/>
</svg>
